<?xml version="1.0" encoding="UTF-8"?>
<svg id="Calque_2" data-name="Calque 2" xmlns="http://www.w3.org/2000/svg" version="1.1" viewBox="0 0 70.4 70.4">
  <defs>
    <style>
      .cls-1 {
        fill: #9fff00;
      }

      .cls-1, .cls-2 {
        stroke-width: 0px;
      }

      .cls-2 {
        fill: none;
      }
    </style>
  </defs>
  <g id="Calque_2-2" data-name="Calque 2-2">
    <path class="cls-1" d="M35.2,0C15.7,0,0,15.8,0,35.2s15.8,35.2,35.2,35.2,35.2-15.8,35.2-35.2S54.7,0,35.2,0ZM52.7,49.7c-1.4,1-2,1.5-4.6,1.5s-5-1.2-6.6-3.4l-1.7-2.4c-.9-1.6-2.1-2.7-4.6-2.7s-4,2-5,4c-1.3,2.6-2.4,4.4-7.4,4.4s-8.9-4.2-8.4-9.3c.4-4.2,3.7-7.3,7.8-7.5,3-.2,5.7,1.3,7.3,3.5l1.4,1.9c.3.5.4.8,1.5.8s2-.9,2-2-.1-.5-.1-.7,0-.3-.2-.5l-8.2-11.5c-.2-.3-.2-.7,0-1.1l8.9-12.5c.2-.3.8-.3,1,0,3.7,5.3,18.8,26.3,18.8,26.3,2.6,3.6,1.7,8.6-1.9,11.2Z"/>
    <rect class="cls-2" width="70.4" height="70.4"/>
  </g>
</svg>